<?xml version="1.0" standalone="no"?>
<!DOCTYPE svg PUBLIC "-//W3C//DTD SVG 20010904//EN"
 "http://www.w3.org/TR/2001/REC-SVG-20010904/DTD/svg10.dtd">
<svg version="1.0" xmlns="http://www.w3.org/2000/svg"
 width="149.000000pt" height="149.000000pt" viewBox="0 0 149.000000 149.000000"
 preserveAspectRatio="xMidYMid meet">
<metadata>
Created by potrace 1.11, written by Peter Selinger 2001-2013
</metadata>
<g transform="translate(0.000000,149.000000) scale(0.100000,-0.100000)"
fill="#000000" stroke="none">
<path d="M431 1477 c-6 -8 -13 -36 -15 -63 -6 -77 -25 -144 -54 -197 -55 -102
-177 -177 -308 -191 -17 -2 -36 -6 -43 -10 -8 -5 -11 -80 -11 -260 0 -229 2
-254 18 -267 14 -12 68 -15 312 -13 162 0 299 -1 303 -3 4 -3 4 -10 -2 -16
-10 -13 -56 -161 -66 -212 -23 -119 -27 -201 -11 -218 20 -19 490 -22 505 -3
6 7 13 41 16 77 6 68 28 148 53 189 60 99 181 173 302 186 24 2 48 10 52 17
11 17 10 499 -2 517 -8 12 -56 15 -312 16 -167 1 -306 2 -310 3 -4 0 2 22 12
47 51 118 92 353 69 396 -9 17 -27 18 -253 18 -192 0 -246 -3 -255 -13z"/>
</g>
</svg>
